Wavefont-wmax,rmax,amin,smax.ufo
<glyph name="_7" format="2">
	<unicode hex="0107"/>
	<advance width="200"/>
	<outline>
		<component base="cap"/>
		<component base="cap" yOffset="-186"/>
		<contour>
			<point x="0" y="128" type="line"/>
			<point x="0" y="-58" type="line"/>
			<point x="256" y="-58" type="line"/>
			<point x="256" y="128" type="line"/>
		</contour>
	</outline>
</glyph>
<glyph name="_8" format="2">
	<unicode hex="0108"/>
	<unicode hex="0065"/>
	<advance width="200"/>
	<outline>
		<component base="cap"/>
		<component base="cap" yOffset="-176"/>
		<contour>
			<point x="0" y="128" type="line"/>
			<point x="0" y="-48" type="line"/>
			<point x="256" y="-48" type="line"/>
			<point x="256" y="128" type="line"/>
		</contour>
	</outline>
</glyph>
<glyph name="_20" format="2">
	<unicode hex="0114"/>
	<unicode hex="0032"/>
	<unicode hex="006B"/>
	<advance width="200"/>
	<outline>
		<component base="cap"/>
		<component base="cap" yOffset="-56"/>
		<contour>
			<point x="0" y="128" type="line"/>
			<point x="0" y="72" type="line"/>
			<point x="256" y="72" type="line"/>
			<point x="256" y="128" type="line"/>
		</contour>
	</outline>
</glyph>
<glyph name="_25" format="2">
	<unicode hex="0119"/>
	<advance width="200"/>
	<outline>
		<component base="cap"/>
		<component base="cap" yOffset="-6"/>
		<contour>
			<point x="0" y="128" type="line"/>
			<point x="0" y="122" type="line"/>
			<point x="256" y="122" type="line"/>
			<point x="256" y="128" type="line"/>
		</contour>
	</outline>
</glyph>
<glyph name="_26" format="2">
	<unicode hex="011A"/>
	<unicode hex="006E"/>
	<advance width="200"/>
	<outline>
		<component base="cap"/>
		<component base="cap" yOffset="4"/>
		<contour>
			<point x="0" y="128" type="line"/>
			<point x="0" y="132" type="line"/>
			<point x="256" y="132" type="line"/>
			<point x="256" y="128" type="line"/>
		</contour>
	</outline>
</glyph>
<glyph name="_30" format="2">
	<unicode hex="011E"/>
	<unicode hex="0033"/>
	<unicode hex="0070"/>
	<advance width="200"/>
	<outline>
		<component base="cap"/>
		<component base="cap" yOffset="44"/>
		<contour>
			<point x="0" y="128" type="line"/>
			<point x="0" y="172" type="line"/>
			<point x="256" y="172" type="line"/>
			<point x="256" y="128" type="line"/>
		</contour>
	</outline>
</glyph>
<glyph name="_31" format="2">
	<unicode hex="011F"/>
	<advance width="200"/>
	<outline>
		<component base="cap"/>
		<component base="cap" yOffset="54"/>
		<contour>
			<point x="0" y="128" type="line"/>
			<point x="0" y="182" type="line"/>
			<point x="256" y="182" type="line"/>
			<point x="256" y="128" type="line"/>
		</contour>
	</outline>
</glyph>
<glyph name="_37" format="2">
	<unicode hex="0125"/>
	<advance width="200"/>
	<outline>
		<component base="cap"/>
		<component base="cap" yOffset="114"/>
		<contour>
			<point x="0" y="128" type="line"/>
			<point x="0" y="242" type="line"/>
			<point x="256" y="242" type="line"/>
			<point x="256" y="128" type="line"/>
		</contour>
	</outline>
</glyph>
<glyph name="_38" format="2">
	<unicode hex="0126"/>
	<unicode hex="0074"/>
	<advance width="200"/>
	<outline>
		<component base="cap"/>
		<component base="cap" yOffset="124"/>
		<contour>
			<point x="0" y="128" type="line"/>
			<point x="0" y="252" type="line"/>
			<point x="256" y="252" type="line"/>
			<point x="256" y="128" type="line"/>
		</contour>
	</outline>
</glyph>
<glyph name="_42" format="2">
	<unicode hex="012A"/>
	<unicode hex="2584"/>
	<unicode hex="0076"/>
	<advance width="200"/>
	<outline>
		<component base="cap"/>
		<component base="cap" yOffset="164"/>
		<contour>
			<point x="0" y="128" type="line"/>
			<point x="0" y="292" type="line"/>
			<point x="256" y="292" type="line"/>
			<point x="256" y="128" type="line"/>
		</contour>
	</outline>
</glyph>
<glyph name="_44" format="2">
	<unicode hex="012C"/>
	<unicode hex="0077"/>
	<advance width="200"/>
	<outline>
		<component base="cap"/>
		<component base="cap" yOffset="184"/>
		<contour>
			<point x="0" y="128" type="line"/>
			<point x="0" y="312" type="line"/>
			<point x="256" y="312" type="line"/>
			<point x="256" y="128" type="line"/>
		</contour>
	</outline>
</glyph>
<glyph name="_45" format="2">
	<unicode hex="012D"/>
	<advance width="200"/>
	<outline>
		<component base="cap"/>
		<component base="cap" yOffset="194"/>
		<contour>
			<point x="0" y="128" type="line"/>
			<point x="0" y="322" type="line"/>
			<point x="256" y="322" type="line"/>
			<point x="256" y="128" type="line"/>
		</contour>
	</outline>
</glyph>
<glyph name="_46" format="2">
	<unicode hex="012E"/>
	<unicode hex="0078"/>
	<advance width="200"/>
	<outline>
		<component base="cap"/>
		<component base="cap" yOffset="204"/>
		<contour>
			<point x="0" y="128" type="line"/>
			<point x="0" y="332" type="line"/>
			<point x="256" y="332" type="line"/>
			<point x="256" y="128" type="line"/>
		</contour>
	</outline>
</glyph>
<glyph name="_51" format="2">
	<unicode hex="0133"/>
	<advance width="200"/>
	<outline>
		<component base="cap"/>
		<component base="cap" yOffset="254"/>
		<contour>
			<point x="0" y="128" type="line"/>
			<point x="0" y="382" type="line"/>
			<point x="256" y="382" type="line"/>
			<point x="256" y="128" type="line"/>
		</contour>
	</outline>
</glyph>
<glyph name="_54" format="2">
	<unicode hex="0136"/>
	<unicode hex="0042"/>
	<advance width="200"/>
	<outline>
		<component base="cap"/>
		<component base="cap" yOffset="284"/>
		<contour>
			<point x="0" y="128" type="line"/>
			<point x="0" y="412" type="line"/>
			<point x="256" y="412" type="line"/>
			<point x="256" y="128" type="line"/>
		</contour>
	</outline>
</glyph>
<glyph name="_56" format="2">
	<unicode hex="0138"/>
	<unicode hex="2585"/>
	<unicode hex="0043"/>
	<advance width="200"/>
	<outline>
		<component base="cap"/>
		<component base="cap" yOffset="304"/>
		<contour>
			<point x="0" y="128" type="line"/>
			<point x="0" y="432" type="line"/>
			<point x="256" y="432" type="line"/>
			<point x="256" y="128" type="line"/>
		</contour>
	</outline>
</glyph>
<glyph name="_69" format="2">
	<unicode hex="0145"/>
	<advance width="200"/>
	<outline>
		<component base="cap"/>
		<component base="cap" yOffset="434"/>
		<contour>
			<point x="0" y="128" type="line"/>
			<point x="0" y="562" type="line"/>
			<point x="256" y="562" type="line"/>
			<point x="256" y="128" type="line"/>
		</contour>
	</outline>
</glyph>
<glyph name="_72" format="2">
	<unicode hex="0148"/>
	<unicode hex="2586"/>
	<unicode hex="004B"/>
	<advance width="200"/>
	<outline>
		<component base="cap"/>
		<component base="cap" yOffset="464"/>
		<contour>
			<point x="0" y="128" type="line"/>
			<point x="0" y="592" type="line"/>
			<point x="256" y="592" type="line"/>
			<point x="256" y="128" type="line"/>
		</contour>
	</outline>
</glyph>
<glyph name="_74" format="2">
	<unicode hex="014A"/>
	<unicode hex="004C"/>
	<advance width="200"/>
	<outline>
		<component base="cap"/>
		<component base="cap" yOffset="484"/>
		<contour>
			<point x="0" y="128" type="line"/>
			<point x="0" y="612" type="line"/>
			<point x="256" y="612" type="line"/>
			<point x="256" y="128" type="line"/>
		</contour>
	</outline>
</glyph>
<glyph name="_78" format="2">
	<unicode hex="014E"/>
	<unicode hex="004E"/>
	<advance width="200"/>
	<outline>
		<component base="cap"/>
		<component base="cap" yOffset="524"/>
		<contour>
			<point x="0" y="128" type="line"/>
			<point x="0" y="652" type="line"/>
			<point x="256" y="652" type="line"/>
			<point x="256" y="128" type="line"/>
		</contour>
	</outline>
</glyph>
<glyph name="_81" format="2">
	<unicode hex="0151"/>
	<advance width="200"/>
	<outline>
		<component base="cap"/>
		<component base="cap" yOffset="554"/>
		<contour>
			<point x="0" y="128" type="line"/>
			<point x="0" y="682" type="line"/>
			<point x="256" y="682" type="line"/>
			<point x="256" y="128" type="line"/>
		</contour>
	</outline>
</glyph>
<glyph name="_82" format="2">
	<unicode hex="0152"/>
	<unicode hex="0050"/>
	<advance width="200"/>
	<outline>
		<component base="cap"/>
		<component base="cap" yOffset="564"/>
		<contour>
			<point x="0" y="128" type="line"/>
			<point x="0" y="692" type="line"/>
			<point x="256" y="692" type="line"/>
			<point x="256" y="128" type="line"/>
		</contour>
	</outline>
</glyph>
<glyph name="_90" format="2">
	<unicode hex="015A"/>
	<unicode hex="0039"/>
	<unicode hex="0054"/>
	<advance width="200"/>
	<outline>
		<component base="cap"/>
		<component base="cap" yOffset="644"/>
		<contour>
			<point x="0" y="128" type="line"/>
			<point x="0" y="772" type="line"/>
			<point x="256" y="772" type="line"/>
			<point x="256" y="128" type="line"/>
		</contour>
	</outline>
</glyph>
<glyph name="_91" format="2">
	<unicode hex="015B"/>
	<advance width="200"/>
	<outline>
		<component base="cap"/>
		<component base="cap" yOffset="654"/>
		<contour>
			<point x="0" y="128" type="line"/>
			<point x="0" y="782" type="line"/>
			<point x="256" y="782" type="line"/>
			<point x="256" y="128" type="line"/>
		</contour>
	</outline>
</glyph>
<glyph name="_92" format="2">
	<unicode hex="015C"/>
	<unicode hex="0055"/>
	<advance width="200"/>
	<outline>
		<component base="cap"/>
		<component base="cap" yOffset="664"/>
		<contour>
			<point x="0" y="128" type="line"/>
			<point x="0" y="792" type="line"/>
			<point x="256" y="792" type="line"/>
			<point x="256" y="128" type="line"/>
		</contour>
	</outline>
</glyph>
<glyph name="_95" format="2">
	<unicode hex="015F"/>
	<advance width="200"/>
	<outline>
		<component base="cap"/>
		<component base="cap" yOffset="694"/>
		<contour>
			<point x="0" y="128" type="line"/>
			<point x="0" y="822" type="line"/>
			<point x="256" y="822" type="line"/>
			<point x="256" y="128" type="line"/>
		</contour>
	</outline>
</glyph>
<glyph name="_99" format="2">
	<unicode hex="0163"/>
	<unicode hex="0059"/>
	<advance width="200"/>
	<outline>
		<component base="cap"/>
		<component base="cap" yOffset="734"/>
		<contour>
			<point x="0" y="128" type="line"/>
			<point x="0" y="862" type="line"/>
			<point x="256" y="862" type="line"/>
			<point x="256" y="128" type="line"/>
		</contour>
	</outline>
</glyph>
<glyph name="_103" format="2">
	<unicode hex="0167"/>
	<advance width="200"/>
	<outline>
		<component base="cap"/>
		<component base="cap" yOffset="774"/>
		<contour>
			<point x="0" y="128" type="line"/>
			<point x="0" y="902" type="line"/>
			<point x="256" y="902" type="line"/>
			<point x="256" y="128" type="line"/>
		</contour>
	</outline>
</glyph>
<glyph name="_104" format="2">
	<unicode hex="0168"/>
	<advance width="200"/>
	<outline>
		<component base="cap"/>
		<component base="cap" yOffset="784"/>
		<contour>
			<point x="0" y="128" type="line"/>
			<point x="0" y="912" type="line"/>
			<point x="256" y="912" type="line"/>
			<point x="256" y="128" type="line"/>
		</contour>
	</outline>
</glyph>
<glyph name="_106" format="2">
	<unicode hex="016A"/>
	<advance width="200"/>
	<outline>
		<component base="cap"/>
		<component base="cap" yOffset="804"/>
		<contour>
			<point x="0" y="128" type="line"/>
			<point x="0" y="932" type="line"/>
			<point x="256" y="932" type="line"/>
			<point x="256" y="128" type="line"/>
		</contour>
	</outline>
</glyph>
<glyph name="_111" format="2">
	<unicode hex="016F"/>
	<advance width="200"/>
	<outline>
		<component base="cap"/>
		<component base="cap" yOffset="854"/>
		<contour>
			<point x="0" y="128" type="line"/>
			<point x="0" y="982" type="line"/>
			<point x="256" y="982" type="line"/>
			<point x="256" y="128" type="line"/>
		</contour>
	</outline>
</glyph>
<glyph name="_114" format="2">
	<unicode hex="0172"/>
	<advance width="200"/>
	<outline>
		<component base="cap"/>
		<component base="cap" yOffset="884"/>
		<contour>
			<point x="0" y="128" type="line"/>
			<point x="0" y="1012" type="line"/>
			<point x="256" y="1012" type="line"/>
			<point x="256" y="128" type="line"/>
		</contour>
	</outline>
</glyph>
<glyph name="_126" format="2">
	<unicode hex="017E"/>
	<advance width="200"/>
	<outline>
		<component base="cap"/>
		<component base="cap" yOffset="1004"/>
		<contour>
			<point x="0" y="128" type="line"/>
			<point x="0" y="1132" type="line"/>
			<point x="256" y="1132" type="line"/>
			<point x="256" y="128" type="line"/>
		</contour>
	</outline>
</glyph>
<glyph name="_16.clip" format="2">
	<advance width="200"/>
	<outline>
		<contour>
			<point x="0" y="124"/>
			<point x="36" y="160"/>
			<point x="80" y="160" type="curve" smooth="yes"/>
			<point x="176" y="160" type="line"/>
			<point x="220" y="160"/>
			<point x="256" y="124"/>
			<point x="256" y="80" type="curve" smooth="yes"/>
			<point x="256" y="80" type="line"/>
			<point x="256" y="36"/>
			<point x="220" y="0"/>
			<point x="176" y="0" type="curve" smooth="yes"/>
			<point x="80" y="0" type="line"/>
			<point x="36" y="0"/>
			<point x="0" y="36"/>
			<point x="0" y="80" type="curve" smooth="yes"/>
			<point x="0" y="80" type="line"/>
		</contour>
	</outline>
</glyph>
<glyph name="_20.clip" format="2">
	<advance width="200"/>
	<outline>
		<contour>
			<point x="0" y="155"/>
			<point x="44" y="200"/>
			<point x="100" y="200" type="curve" smooth="yes"/>
			<point x="156" y="200" type="line"/>
			<point x="211" y="200"/>
			<point x="256" y="155"/>
			<point x="256" y="100" type="curve" smooth="yes"/>
			<point x="256" y="100" type="line"/>
			<point x="256" y="44"/>
			<point x="211" y="0"/>
			<point x="156" y="0" type="curve" smooth="yes"/>
			<point x="100" y="0" type="line"/>
			<point x="44" y="0"/>
			<point x="0" y="44"/>
			<point x="0" y="100" type="curve" smooth="yes"/>
			<point x="0" y="100" type="line"/>
		</contour>
	</outline>
</glyph>
<glyph name="_21.clip" format="2">
	<advance width="200"/>
	<outline>
		<contour>
			<point x="0" y="162.75"/>
			<point x="47.25" y="210"/>
			<point x="105" y="210" type="curve" smooth="yes"/>
			<point x="151" y="210" type="line"/>
			<point x="208.75" y="210"/>
			<point x="256" y="162.75"/>
			<point x="256" y="105" type="curve" smooth="yes"/>
			<point x="256" y="105" type="line"/>
			<point x="256" y="47.25"/>
			<point x="208.75" y="0"/>
			<point x="151" y="0" type="curve" smooth="yes"/>
			<point x="105" y="0" type="line"/>
			<point x="47.25" y="0"/>
			<point x="0" y="47.25"/>
			<point x="0" y="105" type="curve" smooth="yes"/>
			<point x="0" y="105" type="line"/>
		</contour>
	</outline>
</glyph>
<glyph name="_24.clip" format="2">
	<advance width="200"/>
	<outline>
		<contour>
			<point x="0" y="186"/>
			<point x="53" y="240"/>
			<point x="120" y="240" type="curve" smooth="yes"/>
			<point x="136" y="240" type="line"/>
			<point x="202" y="240"/>
			<point x="256" y="186"/>
			<point x="256" y="120" type="curve" smooth="yes"/>
			<point x="256" y="120" type="line"/>
			<point x="256" y="53"/>
			<point x="202" y="0"/>
			<point x="136" y="0" type="curve" smooth="yes"/>
			<point x="120" y="0" type="line"/>
			<point x="53" y="0"/>
			<point x="0" y="53"/>
			<point x="0" y="120" type="curve" smooth="yes"/>
			<point x="0" y="120" type="line"/>
		</contour>
	</outline>
</glyph>
<glyph name="_4.clip" format="2">
	<advance width="200"/>
	<outline>
		<contour>
			<point x="0" y="31"/>
			<point x="9" y="40"/>
			<point x="20" y="40" type="curve" smooth="yes"/>
			<point x="236" y="40" type="line"/>
			<point x="247" y="40"/>
			<point x="256" y="31"/>
			<point x="256" y="20" type="curve" smooth="yes"/>
			<point x="256" y="20" type="line"/>
			<point x="256" y="9"/>
			<point x="247" y="0"/>
			<point x="236" y="0" type="curve" smooth="yes"/>
			<point x="20" y="0" type="line"/>
			<point x="9" y="0"/>
			<point x="0" y="9"/>
			<point x="0" y="20" type="curve" smooth="yes"/>
			<point x="0" y="20" type="line"/>
		</contour>
	</outline>
</glyph>
<glyph name="_6.clip" format="2">
	<advance width="200"/>
	<outline>
		<contour>
			<point x="0" y="46.5"/>
			<point x="13.5" y="60"/>
			<point x="30" y="60" type="curve" smooth="yes"/>
			<point x="226" y="60" type="line"/>
			<point x="242.5" y="60"/>
			<point x="256" y="46.5"/>
			<point x="256" y="30" type="curve" smooth="yes"/>
			<point x="256" y="30" type="line"/>
			<point x="256" y="13.5"/>
			<point x="242.5" y="0"/>
			<point x="226" y="0" type="curve" smooth="yes"/>
			<point x="30" y="0" type="line"/>
			<point x="13.5" y="0"/>
			<point x="0" y="13.5"/>
			<point x="0" y="30" type="curve" smooth="yes"/>
			<point x="0" y="30" type="line"/>
		</contour>
	</outline>
</glyph>
